# xmcd CD database file
#
# Track frame offsets:
#	150
#	20351
#	38912
#	61409
#	80775
#	100017
#	118939
#	138686
#	159812
#	176333
#	195149
#
# Disc length: 2851 seconds
#
# Revision: 1
# Processed by: cddbd v1.5.2PL0 Copyright (c) Steve Scherf et al.
# Submitted via: CDex 1.60beta1
#
DISCID=870b210b
DTITLE=Manu Tenorio - Entenderas
DYEAR=2006
DGENRE=Latin
TTITLE0=Me Parece Mentira
TTITLE1=Como Te He Echado De Menos
TTITLE2=Entenderas
TTITLE3=Tu Mejor Perfil
TTITLE4=Lo Que Queramos
TTITLE5=Bendigo, Maldigo
TTITLE6=Sin Nostalguia
TTITLE7=Empapado Entre Preguntas
TTITLE8=Sobrevivire
TTITLE9=Saber De Ti
TTITLE10=Lo Principal Eres Tu
EXTD=YEAR: 2006
EXTT0=
EXTT1=
EXTT2=
EXTT3=
EXTT4=
EXTT5=
EXTT6=
EXTT7=
EXTT8=
EXTT9=
EXTT10=
PLAYORDER=
